<svg height="512" viewBox="0 0 64 64" width="512" xmlns="http://www.w3.org/2000/svg"><g id="Coffee_cup-4" data-name="Coffee cup"><path d="m50 25v2a2.006 2.006 0 0 1 -2 2h-32a2.006 2.006 0 0 1 -2-2v-2a2.006 2.006 0 0 1 2-2h32a2.006 2.006 0 0 1 2 2z" fill="#c0ab91"/><path d="m47 35-1 20h-28l-1-20z" fill="#ff7956"/><path d="m46 18v5h-28v-5l3-3h9 4 9.02z" fill="#9cdd05"/><g fill="#fee9ab"><path d="m46 29-.55 6h-26.9l-.55-6z"/><path d="m44.55 55-.55 6h-24l-.55-6z"/><path d="m37 3h7v4h-7z"/></g><path d="m37 3v4h-3l-2.82-2.82-.01-.01a4.025 4.025 0 0 1 2.83-1.17z" fill="#ff7956"/><ellipse cx="32" cy="45" fill="#a78966" rx="4" ry="6"/><path d="m30 10h4v5h-4z" fill="#ff7956"/><path d="m34 7v3h-4v-3a4.025 4.025 0 0 1 1.17-2.83l.01.01z" fill="#fee9ab"/><path d="m48 22h-1v-4a1 1 0 0 0 -.29-.7l-2.98-3a1 1 0 0 0 -.709-.3h-8.021v-6h9a1 1 0 0 0 1-1v-4a1 1 0 0 0 -1-1h-10a5.006 5.006 0 0 0 -5 5v7h-8a1 1 0 0 0 -.707.293l-3 3a1 1 0 0 0 -.293.707v4h-1a3 3 0 0 0 -3 3v2a3 3 0 0 0 3 3h1.087l.367 4h-.454a1 1 0 0 0 -1 1.05l1 20a1 1 0 0 0 1 .95h.537l.463 5.091a1 1 0 0 0 1 .909h24a1 1 0 0 0 1-.909l.463-5.091h.537a1 1 0 0 0 1-.95l1-20a1 1 0 0 0 -1-1.05h-.454l.367-4h1.087a3 3 0 0 0 3-3v-2a3 3 0 0 0 -3-3zm-16.7-16.285 1.7 1.7v1.585h-2v-2a2.951 2.951 0 0 1 .3-1.285zm11.7.285h-5v-2h5zm-7-2v2h-1.586l-1.7-1.7a2.951 2.951 0 0 1 1.286-.3zm-5 7h2v3h-2zm-12 7.414 2.414-2.414h21.186l2.4 2.412v3.588h-26zm24.088 41.586h-22.176l-.366-4h22.908zm1.961-6h-26.1l-.9-18h27.9zm-.512-20h-25.074l-.363-4h25.8zm4.463-7a1 1 0 0 1 -1 1h-32a1 1 0 0 1 -1-1v-2a1 1 0 0 1 1-1h32a1 1 0 0 1 1 1z"/><path d="m32 52c2.8 0 5-3.075 5-7s-2.2-7-5-7-5 3.075-5 7 2.2 7 5 7zm0-12c1.626 0 3 2.29 3 5 0 2.127-.85 3.976-2 4.682v-3.682h-2v3.682c-1.15-.706-2-2.555-2-4.682 0-2.71 1.374-5 3-5z"/><path d="m31 42h2v2h-2z"/></g></svg>